<?xml version="1.0" encoding="utf-8"?>
<!-- Generator: Adobe Illustrator 16.0.0, SVG Export Plug-In . SVG Version: 6.00 Build 0)  -->
<!DOCTYPE svg PUBLIC "-//W3C//DTD SVG 1.1//EN" "http://www.w3.org/Graphics/SVG/1.1/DTD/svg11.dtd">
<svg version="1.1" id="Layer_1" xmlns="http://www.w3.org/2000/svg" xmlns:xlink="http://www.w3.org/1999/xlink" x="0px" y="0px"
	 width="300px" height="34.593px" viewBox="0 0 300 34.593" enable-background="new 0 0 300 34.593" xml:space="preserve">
<polygon fill="#56366B" points="24.909,-0.701 24.909,6.216 8.549,6.216 8.549,13.839 24.101,13.839 24.101,20.759 8.549,20.759 
	8.549,34.593 0.672,34.593 0.672,-0.701 "/>
<path fill="#56366B" d="M67.678,34.593l-3.282-7.624H49.601l-3.281,7.624h-8.382L53.187-0.701h7.624l15.25,35.293H67.678z
	 M57.024,9.801l-4.443,10.25h8.835L57.024,9.801z"/>
<path fill="#56366B" d="M108.477,34.593H93.026V-0.701h13.734c2.391,0,4.451,0.285,6.185,0.856c1.733,0.574,3.039,1.347,3.914,2.323
	c1.582,1.818,2.375,3.872,2.375,6.161c0,2.761-0.893,4.814-2.677,6.159c-0.605,0.473-1.028,0.767-1.263,0.886
	c-0.236,0.118-0.657,0.311-1.262,0.581c2.187,0.471,3.93,1.454,5.227,2.954c1.295,1.499,1.943,3.356,1.943,5.579
	c0,2.458-0.841,4.63-2.524,6.513C116.724,33.5,113.324,34.593,108.477,34.593 M100.903,13.587h3.736
	c2.187,0,3.812-0.234,4.873-0.706c1.061-0.471,1.591-1.49,1.591-3.056c0-1.564-0.489-2.599-1.465-3.105
	c-0.975-0.504-2.625-0.757-4.947-0.757h-3.787V13.587z M100.903,27.928h5.402c2.255,0,3.947-0.279,5.075-0.833
	c1.128-0.556,1.692-1.649,1.692-3.282c0-1.632-0.599-2.71-1.793-3.231c-1.195-0.522-3.104-0.782-5.731-0.782h-4.645V27.928z"/>
<path fill="#56366B" d="M144.18,2.075c2.34-1.852,6.253-2.776,11.739-2.776H169.3v35.293h-7.877V23.333h-5.453l-7.827,11.259h-9.695
	l8.938-12.622c-4.476-1.65-6.715-5.302-6.715-10.958C140.67,6.907,141.841,3.926,144.18,2.075 M155.667,16.517h5.756V6.065h-5.907
	c-2.524,0-4.291,0.353-5.302,1.058c-1.01,0.708-1.515,2.014-1.515,3.914c0,1.904,0.489,3.292,1.465,4.168
	C151.141,16.079,152.975,16.517,155.667,16.517"/>
<rect x="190.277" y="-0.701" fill="#56366B" width="7.877" height="35.294"/>
<path fill="#56366B" d="M244.861,34.593l-3.283-7.624h-14.795l-3.281,7.624h-8.383l15.25-35.293h7.623l15.251,35.293H244.861z
	 M234.207,9.801l-4.444,10.25h8.836L234.207,9.801z"/>
<polygon fill="#56366B" points="292.123,-0.701 300,-0.701 300,34.593 292.123,34.593 292.123,20.708 278.085,20.708 
	278.085,34.593 270.209,34.593 270.209,-0.701 278.085,-0.701 278.085,14.043 292.123,14.043 "/>
</svg>
