<?xml version="1.0" encoding="utf-8"?>
<!-- Generator: Adobe Illustrator 16.0.0, SVG Export Plug-In . SVG Version: 6.00 Build 0)  -->
<!DOCTYPE svg PUBLIC "-//W3C//DTD SVG 1.1//EN" "http://www.w3.org/Graphics/SVG/1.1/DTD/svg11.dtd">
<svg version="1.1" id="Layer_1" xmlns="http://www.w3.org/2000/svg" xmlns:xlink="http://www.w3.org/1999/xlink" x="0px" y="0px"
	 width="300.121px" height="56.896px" viewBox="0 0 300.121 56.896" enable-background="new 0 0 300.121 56.896"
	 xml:space="preserve">
<polygon fill="#56366B" points="24.504,0 24.504,6.85 8.127,6.85 8.127,14.398 23.696,14.398 23.696,21.25 8.127,21.25 
	8.127,34.947 0.242,34.947 0.242,0 "/>
<path fill="#56366B" d="M67.32,34.947l-3.287-7.549H49.222l-3.284,7.549h-8.392L52.813,0h7.631L75.71,34.947H67.32z M56.653,10.399
	l-4.447,10.149h8.845L56.653,10.399z"/>
<path fill="#56366B" d="M108.162,34.947H92.694V0h13.749c2.393,0,4.456,0.282,6.192,0.849c1.735,0.568,3.042,1.334,3.918,2.3
	c1.583,1.801,2.376,3.833,2.376,6.101c0,2.733-0.894,4.767-2.679,6.1c-0.606,0.468-1.029,0.759-1.265,0.876
	c-0.235,0.117-0.657,0.309-1.263,0.575c2.189,0.467,3.934,1.44,5.232,2.925c1.296,1.483,1.946,3.323,1.946,5.523
	c0,2.435-0.843,4.584-2.527,6.45C116.417,33.866,113.014,34.947,108.162,34.947 M100.58,14.148h3.74c2.19,0,3.816-0.232,4.878-0.699
	c1.061-0.466,1.593-1.475,1.593-3.026c0-1.548-0.49-2.572-1.467-3.073c-0.976-0.5-2.627-0.751-4.953-0.751h-3.791V14.148z
	 M100.58,28.348h5.408c2.257,0,3.951-0.275,5.081-0.824c1.128-0.55,1.693-1.633,1.693-3.25c0-1.616-0.599-2.685-1.795-3.2
	c-1.196-0.516-3.108-0.774-5.737-0.774h-4.65V28.348z"/>
<path fill="#56366B" d="M143.903,2.749C146.246,0.916,150.163,0,155.654,0h13.396v34.946h-7.885V23.799h-5.459l-7.835,11.148h-9.705
	l8.946-12.498c-4.481-1.635-6.723-5.25-6.723-10.85C140.39,7.533,141.562,4.582,143.903,2.749 M155.402,17.049h5.763V6.7h-5.914
	c-2.526,0-4.296,0.35-5.308,1.048c-1.011,0.7-1.518,1.995-1.518,3.875c0,1.886,0.49,3.258,1.467,4.126
	C150.871,16.615,152.708,17.049,155.402,17.049"/>
<rect x="190.049" y="0" fill="#56366B" width="7.885" height="34.947"/>
<path fill="#56366B" d="M244.691,34.947l-3.285-7.549h-14.812l-3.283,7.549h-8.393L230.184,0h7.633l15.267,34.946L244.691,34.947
	L244.691,34.947z M234.025,10.399l-4.448,10.149h8.846L234.025,10.399z"/>
<polygon fill="#56366B" points="292.004,0 299.889,0 299.889,34.947 292.004,34.947 292.004,21.199 277.952,21.199 277.952,34.947 
	270.066,34.947 270.066,0 277.952,0 277.952,14.6 292.004,14.6 "/>
<g>
	<path fill="#808081" d="M5.192,51.247c0,0.807-0.275,1.428-0.826,1.862S3.027,53.76,2.001,53.76H1.063v3.136H0.137v-7.973h2.067
		C4.196,48.924,5.192,49.698,5.192,51.247z M1.063,52.965h0.834c0.822,0,1.416-0.133,1.783-0.398s0.551-0.69,0.551-1.275
		c0-0.527-0.173-0.92-0.518-1.179c-0.345-0.258-0.883-0.387-1.614-0.387H1.063V52.965z"/>
	<path fill="#808081" d="M10.58,53.581v3.315H9.653v-7.973h2.187c0.978,0,1.701,0.188,2.168,0.562
		c0.467,0.375,0.701,0.938,0.701,1.69c0,1.055-0.535,1.768-1.604,2.138l2.165,3.583h-1.096l-1.93-3.315H10.58z M10.58,52.785h1.271
		c0.654,0,1.134-0.13,1.439-0.391c0.305-0.26,0.458-0.649,0.458-1.17c0-0.526-0.155-0.906-0.466-1.14
		c-0.311-0.232-0.81-0.349-1.497-0.349H10.58V52.785z"/>
	<path fill="#808081" d="M26.269,52.899c0,1.276-0.322,2.279-0.968,3.01c-0.646,0.731-1.542,1.097-2.691,1.097
		c-1.174,0-2.08-0.359-2.718-1.077s-0.957-1.731-0.957-3.04c0-1.298,0.32-2.305,0.96-3.019c0.64-0.715,1.548-1.071,2.727-1.071
		c1.145,0,2.04,0.363,2.683,1.09C25.947,50.616,26.269,51.619,26.269,52.899z M19.916,52.899c0,1.079,0.23,1.898,0.69,2.456
		c0.46,0.559,1.128,0.838,2.004,0.838c0.884,0,1.551-0.278,2.001-0.835c0.451-0.556,0.676-1.376,0.676-2.459
		c0-1.072-0.225-1.886-0.673-2.44c-0.449-0.555-1.113-0.832-1.993-0.832c-0.883,0-1.555,0.279-2.015,0.838
		C20.146,51.022,19.916,51.834,19.916,52.899z"/>
	<path fill="#808081" d="M31.765,56.896h-0.927v-7.973h4.444v0.823h-3.518v2.918h3.305v0.823h-3.305V56.896z"/>
	<path fill="#808081" d="M43.839,56.896h-4.444v-7.973h4.444v0.823h-3.518v2.568h3.305v0.818h-3.305v2.934h3.518V56.896z"/>
	<path fill="#808081" d="M52.897,54.775c0,0.701-0.255,1.249-0.764,1.642s-1.2,0.589-2.072,0.589c-0.945,0-1.672-0.122-2.181-0.365
		v-0.895c0.327,0.138,0.684,0.247,1.069,0.327s0.767,0.12,1.145,0.12c0.618,0,1.083-0.117,1.396-0.353
		c0.312-0.234,0.469-0.561,0.469-0.979c0-0.276-0.056-0.502-0.167-0.679s-0.296-0.339-0.556-0.488
		c-0.26-0.148-0.655-0.318-1.186-0.507c-0.742-0.266-1.271-0.58-1.59-0.943c-0.318-0.363-0.477-0.838-0.477-1.424
		c0-0.614,0.231-1.104,0.692-1.467c0.462-0.363,1.073-0.545,1.833-0.545c0.792,0,1.521,0.146,2.187,0.436l-0.289,0.808
		c-0.658-0.276-1.298-0.414-1.92-0.414c-0.491,0-0.874,0.105-1.15,0.315c-0.276,0.211-0.415,0.504-0.415,0.878
		c0,0.276,0.051,0.503,0.153,0.68c0.102,0.176,0.273,0.338,0.515,0.485c0.242,0.146,0.612,0.31,1.11,0.487
		c0.836,0.299,1.411,0.618,1.726,0.96C52.74,53.786,52.897,54.229,52.897,54.775z"/>
	<path fill="#808081" d="M61.818,54.775c0,0.701-0.255,1.249-0.764,1.642s-1.2,0.589-2.072,0.589c-0.945,0-1.672-0.122-2.181-0.365
		v-0.895c0.327,0.138,0.684,0.247,1.069,0.327s0.767,0.12,1.145,0.12c0.618,0,1.083-0.117,1.396-0.353
		c0.312-0.234,0.469-0.561,0.469-0.979c0-0.276-0.056-0.502-0.167-0.679s-0.296-0.339-0.556-0.488
		c-0.26-0.148-0.655-0.318-1.186-0.507c-0.742-0.266-1.271-0.58-1.59-0.943c-0.318-0.363-0.477-0.838-0.477-1.424
		c0-0.614,0.231-1.104,0.692-1.467c0.462-0.363,1.073-0.545,1.833-0.545c0.792,0,1.521,0.146,2.187,0.436l-0.289,0.808
		c-0.658-0.276-1.298-0.414-1.92-0.414c-0.491,0-0.874,0.105-1.15,0.315c-0.276,0.211-0.415,0.504-0.415,0.878
		c0,0.276,0.051,0.503,0.153,0.68c0.102,0.176,0.273,0.338,0.515,0.485c0.242,0.146,0.612,0.31,1.11,0.487
		c0.836,0.299,1.411,0.618,1.726,0.96C61.661,53.786,61.818,54.229,61.818,54.775z"/>
	<path fill="#808081" d="M66.241,56.896v-7.973h0.927v7.973H66.241z"/>
	<path fill="#808081" d="M79.067,52.899c0,1.276-0.322,2.279-0.968,3.01c-0.646,0.731-1.542,1.097-2.691,1.097
		c-1.174,0-2.08-0.359-2.718-1.077s-0.957-1.731-0.957-3.04c0-1.298,0.32-2.305,0.96-3.019c0.64-0.715,1.548-1.071,2.727-1.071
		c1.145,0,2.04,0.363,2.683,1.09C78.745,50.616,79.067,51.619,79.067,52.899z M72.714,52.899c0,1.079,0.23,1.898,0.69,2.456
		c0.46,0.559,1.128,0.838,2.004,0.838c0.884,0,1.551-0.278,2.001-0.835c0.451-0.556,0.676-1.376,0.676-2.459
		c0-1.072-0.225-1.886-0.673-2.44c-0.449-0.555-1.113-0.832-1.993-0.832c-0.883,0-1.555,0.279-2.015,0.838
		C72.944,51.022,72.714,51.834,72.714,52.899z"/>
	<path fill="#808081" d="M89.864,56.896h-1.058l-4.357-6.691h-0.043c0.058,0.785,0.087,1.505,0.087,2.16v4.531h-0.856v-7.973h1.047
		l4.346,6.664h0.044c-0.007-0.099-0.024-0.414-0.049-0.946s-0.035-0.913-0.027-1.143v-4.575h0.867V56.896z"/>
	<path fill="#808081" d="M99.86,56.896l-0.992-2.536h-3.196l-0.981,2.536h-0.938l3.152-8.006h0.78l3.136,8.006H99.86z
		 M98.579,53.526l-0.927-2.471c-0.12-0.312-0.244-0.695-0.371-1.15c-0.08,0.35-0.195,0.732-0.344,1.15l-0.938,2.471H98.579z"/>
	<path fill="#808081" d="M104.708,56.896v-7.973h0.927v7.133h3.518v0.84H104.708z"/>
	<path fill="#808081" d="M125.043,56.896h-0.927v-3.752h-4.199v3.752h-0.927v-7.973h0.927v3.392h4.199v-3.392h0.927V56.896z"/>
	<path fill="#808081" d="M135.034,56.896l-0.992-2.536h-3.196l-0.981,2.536h-0.938l3.152-8.006h0.78l3.136,8.006H135.034z
		 M133.752,53.526l-0.927-2.471c-0.12-0.312-0.244-0.695-0.371-1.15c-0.08,0.35-0.195,0.732-0.344,1.15l-0.938,2.471H133.752z"/>
	<path fill="#808081" d="M139.882,56.896v-7.973h0.927v7.973H139.882z"/>
	<path fill="#808081" d="M146.714,53.581v3.315h-0.927v-7.973h2.187c0.978,0,1.701,0.188,2.168,0.562
		c0.467,0.375,0.701,0.938,0.701,1.69c0,1.055-0.535,1.768-1.604,2.138l2.165,3.583h-1.096l-1.93-3.315H146.714z M146.714,52.785
		h1.271c0.654,0,1.134-0.13,1.439-0.391c0.305-0.26,0.458-0.649,0.458-1.17c0-0.526-0.155-0.906-0.466-1.14
		c-0.311-0.232-0.81-0.349-1.497-0.349h-1.206V52.785z"/>
	<path fill="#808081" d="M166.232,51.247c0,0.807-0.275,1.428-0.826,1.862s-1.339,0.651-2.364,0.651h-0.938v3.136h-0.928v-7.973
		h2.067C165.236,48.924,166.232,49.698,166.232,51.247z M162.104,52.965h0.834c0.821,0,1.416-0.133,1.783-0.398
		s0.551-0.69,0.551-1.275c0-0.527-0.173-0.92-0.518-1.179c-0.346-0.258-0.884-0.387-1.614-0.387h-1.036V52.965z"/>
	<path fill="#808081" d="M171.62,53.581v3.315h-0.928v-7.973h2.188c0.978,0,1.7,0.188,2.167,0.562
		c0.468,0.375,0.701,0.938,0.701,1.69c0,1.055-0.534,1.768-1.604,2.138l2.165,3.583h-1.096l-1.931-3.315H171.62z M171.62,52.785
		h1.271c0.654,0,1.134-0.13,1.439-0.391c0.306-0.26,0.458-0.649,0.458-1.17c0-0.526-0.155-0.906-0.466-1.14
		c-0.312-0.232-0.811-0.349-1.497-0.349h-1.205V52.785z"/>
	<path fill="#808081" d="M187.309,52.899c0,1.276-0.323,2.279-0.969,3.01c-0.645,0.731-1.542,1.097-2.69,1.097
		c-1.175,0-2.081-0.359-2.719-1.077s-0.957-1.731-0.957-3.04c0-1.298,0.32-2.305,0.96-3.019c0.64-0.715,1.549-1.071,2.727-1.071
		c1.146,0,2.039,0.363,2.683,1.09C186.986,50.616,187.309,51.619,187.309,52.899z M180.955,52.899c0,1.079,0.23,1.898,0.69,2.456
		c0.459,0.559,1.128,0.838,2.004,0.838c0.883,0,1.55-0.278,2.001-0.835c0.451-0.556,0.677-1.376,0.677-2.459
		c0-1.072-0.225-1.886-0.674-2.44s-1.113-0.832-1.993-0.832c-0.884,0-1.556,0.279-2.015,0.838
		C181.186,51.022,180.955,51.834,180.955,52.899z"/>
	<path fill="#808081" d="M198.242,52.834c0,1.316-0.357,2.322-1.071,3.019c-0.715,0.696-1.742,1.044-3.084,1.044h-2.209v-7.973
		h2.443c1.24,0,2.203,0.344,2.891,1.03C197.898,50.641,198.242,51.601,198.242,52.834z M197.261,52.866
		c0-1.039-0.261-1.823-0.782-2.35c-0.522-0.527-1.298-0.791-2.326-0.791h-1.347v6.369h1.129c1.104,0,1.936-0.271,2.492-0.815
		C196.982,54.736,197.261,53.931,197.261,52.866z"/>
	<path fill="#808081" d="M208.832,48.924v5.159c0,0.908-0.274,1.623-0.823,2.143c-0.549,0.521-1.304,0.78-2.263,0.78
		c-0.96,0-1.703-0.262-2.228-0.785c-0.525-0.524-0.788-1.244-0.788-2.16v-5.137h0.927v5.202c0,0.666,0.182,1.177,0.545,1.532
		c0.364,0.356,0.898,0.535,1.604,0.535c0.673,0,1.19-0.18,1.555-0.537c0.363-0.358,0.545-0.872,0.545-1.541v-5.191H208.832z"/>
	<path fill="#808081" d="M217.148,49.638c-0.876,0-1.567,0.291-2.075,0.875c-0.507,0.583-0.761,1.382-0.761,2.396
		c0,1.043,0.245,1.85,0.733,2.419c0.489,0.568,1.187,0.853,2.092,0.853c0.556,0,1.19-0.1,1.903-0.3v0.812
		c-0.553,0.208-1.234,0.312-2.045,0.312c-1.175,0-2.081-0.356-2.719-1.069c-0.638-0.712-0.957-1.725-0.957-3.037
		c0-0.821,0.153-1.542,0.461-2.159c0.307-0.618,0.751-1.095,1.33-1.43c0.58-0.334,1.263-0.501,2.048-0.501
		c0.836,0,1.567,0.152,2.192,0.458l-0.393,0.796C218.355,49.78,217.752,49.638,217.148,49.638z"/>
	<path fill="#808081" d="M226.026,56.896H225.1v-7.149h-2.524v-0.823h5.977v0.823h-2.525V56.896z"/>
	<path fill="#808081" d="M237.042,54.775c0,0.701-0.254,1.249-0.763,1.642c-0.51,0.393-1.2,0.589-2.072,0.589
		c-0.945,0-1.673-0.122-2.182-0.365v-0.895c0.327,0.138,0.684,0.247,1.068,0.327c0.386,0.08,0.768,0.12,1.146,0.12
		c0.618,0,1.083-0.117,1.396-0.353c0.312-0.234,0.469-0.561,0.469-0.979c0-0.276-0.056-0.502-0.166-0.679
		c-0.111-0.177-0.297-0.339-0.557-0.488c-0.26-0.148-0.655-0.318-1.187-0.507c-0.741-0.266-1.271-0.58-1.589-0.943
		c-0.318-0.363-0.478-0.838-0.478-1.424c0-0.614,0.23-1.104,0.692-1.467s1.072-0.545,1.832-0.545c0.793,0,1.521,0.146,2.188,0.436
		l-0.289,0.808c-0.658-0.276-1.298-0.414-1.92-0.414c-0.49,0-0.874,0.105-1.15,0.315c-0.276,0.211-0.415,0.504-0.415,0.878
		c0,0.276,0.052,0.503,0.153,0.68c0.102,0.176,0.273,0.338,0.516,0.485c0.241,0.146,0.611,0.31,1.109,0.487
		c0.836,0.299,1.411,0.618,1.726,0.96S237.042,54.229,237.042,54.775z"/>
	<path fill="#808081" d="M254.079,52.899c0,1.276-0.323,2.279-0.969,3.01c-0.645,0.731-1.542,1.097-2.69,1.097
		c-1.175,0-2.081-0.359-2.719-1.077s-0.957-1.731-0.957-3.04c0-1.298,0.32-2.305,0.96-3.019c0.64-0.715,1.549-1.071,2.727-1.071
		c1.146,0,2.039,0.363,2.683,1.09C253.757,50.616,254.079,51.619,254.079,52.899z M247.726,52.899c0,1.079,0.23,1.898,0.69,2.456
		c0.459,0.559,1.128,0.838,2.004,0.838c0.883,0,1.55-0.278,2.001-0.835c0.451-0.556,0.677-1.376,0.677-2.459
		c0-1.072-0.225-1.886-0.674-2.44s-1.113-0.832-1.993-0.832c-0.884,0-1.556,0.279-2.015,0.838
		C247.956,51.022,247.726,51.834,247.726,52.899z"/>
	<path fill="#808081" d="M264.875,56.896h-1.058l-4.357-6.691h-0.043c0.058,0.785,0.087,1.505,0.087,2.16v4.531h-0.856v-7.973h1.048
		l4.346,6.664h0.044c-0.008-0.099-0.023-0.414-0.049-0.946c-0.026-0.532-0.035-0.913-0.027-1.143v-4.575h0.866V56.896z"/>
	<path fill="#808081" d="M269.859,56.896v-7.973h0.928v7.133h3.517v0.84H269.859z"/>
	<path fill="#808081" d="M278.448,56.896v-7.973h0.928v7.973H278.448z"/>
	<path fill="#808081" d="M290.582,56.896h-1.058l-4.357-6.691h-0.043c0.058,0.785,0.087,1.505,0.087,2.16v4.531h-0.856v-7.973h1.048
		l4.346,6.664h0.044c-0.008-0.099-0.023-0.414-0.049-0.946c-0.026-0.532-0.035-0.913-0.027-1.143v-4.575h0.866V56.896z"/>
	<path fill="#808081" d="M300.011,56.896h-4.444v-7.973h4.444v0.823h-3.517v2.568h3.305v0.818h-3.305v2.934h3.517V56.896z"/>
</g>
</svg>
