<?xml version="1.0" encoding="utf-8"?>
<!-- Generator: Adobe Illustrator 16.0.0, SVG Export Plug-In . SVG Version: 6.00 Build 0)  -->
<!DOCTYPE svg PUBLIC "-//W3C//DTD SVG 1.1//EN" "http://www.w3.org/Graphics/SVG/1.1/DTD/svg11.dtd">
<svg version="1.1" id="Layer_1" xmlns="http://www.w3.org/2000/svg" xmlns:xlink="http://www.w3.org/1999/xlink" x="0px" y="0px"
	 width="116.553px" height="90.705px" viewBox="0 0 116.553 90.705" enable-background="new 0 0 116.553 90.705"
	 xml:space="preserve">
<path fill="#0099DF" d="M113.053,58.301v-1.2h0.5v-0.199h-1.2v0.199h0.5v1.2H113.053z M115.452,58.301v-1.399h-0.399l-0.4,1
	l-0.399-1h-0.399v1.399h0.3v-1.1l0.4,0.899h0.3l0.399-0.899v1.1H115.452z"/>
<g>
	<polygon fill="#6C6BBD" points="73.965,64.548 42.479,64.548 42.479,7.964 73.965,7.964 	"/>
	<path fill="#D32011" d="M44.477,36.256c0-11.478,5.374-21.702,13.744-28.292C52.1,3.147,44.376,0.271,35.982,0.271
		c-19.872,0-35.981,16.111-35.981,35.985c0,19.876,16.109,35.987,35.981,35.987c8.395,0,16.119-2.877,22.239-7.694
		C49.85,57.96,44.477,47.734,44.477,36.256"/>
	<path fill="#0099DF" d="M116.442,36.256c0,19.876-16.108,35.987-35.981,35.987c-8.394,0-16.118-2.877-22.24-7.694
		c8.372-6.589,13.746-16.814,13.746-28.292S66.592,14.555,58.22,7.965c6.122-4.817,13.846-7.694,22.24-7.694
		C100.333,0.271,116.442,16.382,116.442,36.256"/>
	<path fill="#FFFFFF" d="M84.617,80.537c0.42,0,1.02,0.079,1.48,0.261l-0.64,1.959c-0.44-0.182-0.879-0.241-1.301-0.241
		c-1.359,0-2.039,0.878-2.039,2.457v5.359h-2.079v-9.555h2.059v1.159C82.639,81.098,83.418,80.537,84.617,80.537L84.617,80.537z
		 M76.935,82.677h-3.397v4.316c0,0.959,0.338,1.6,1.379,1.6c0.541,0,1.221-0.182,1.838-0.541l0.6,1.778
		c-0.659,0.461-1.697,0.741-2.598,0.741c-2.459,0-3.316-1.32-3.316-3.54v-4.354H69.5v-1.899h1.939v-2.898h2.098v2.898h3.397V82.677
		L76.935,82.677z M50.329,84.714c0.221-1.38,1.059-2.319,2.539-2.319c1.339,0,2.198,0.839,2.417,2.319H50.329z M57.447,85.554
		c-0.021-2.979-1.86-5.017-4.539-5.017c-2.799,0-4.757,2.038-4.757,5.017c0,3.037,2.039,5.015,4.899,5.015
		c1.438,0,2.756-0.358,3.917-1.337l-1.021-1.54c-0.798,0.639-1.818,0.999-2.778,0.999c-1.337,0-2.557-0.619-2.857-2.337h7.095
		C57.426,86.092,57.447,85.833,57.447,85.554L57.447,85.554z M66.58,83.216c-0.579-0.36-1.758-0.821-2.979-0.821
		c-1.139,0-1.817,0.421-1.817,1.122c0,0.638,0.719,0.818,1.617,0.938l0.98,0.14c2.078,0.302,3.337,1.18,3.337,2.858
		c0,1.819-1.599,3.119-4.355,3.119c-1.562,0-3-0.4-4.14-1.239l0.979-1.62c0.702,0.54,1.742,0.999,3.182,0.999
		c1.418,0,2.179-0.419,2.179-1.159c0-0.536-0.541-0.841-1.681-0.997l-0.979-0.141c-2.14-0.302-3.299-1.261-3.299-2.819
		c0-1.898,1.562-3.058,3.979-3.058c1.52,0,2.899,0.34,3.897,1L66.58,83.216L66.58,83.216z M92.216,82.512
		c-0.428,0-0.824,0.075-1.192,0.224c-0.366,0.151-0.683,0.361-0.952,0.631c-0.268,0.271-0.478,0.596-0.631,0.974
		c-0.154,0.376-0.229,0.794-0.229,1.246c0,0.455,0.074,0.87,0.229,1.247c0.153,0.377,0.363,0.702,0.631,0.972
		c0.27,0.271,0.586,0.48,0.952,0.633c0.368,0.149,0.765,0.224,1.192,0.224s0.825-0.074,1.191-0.224
		c0.368-0.152,0.688-0.361,0.958-0.633c0.27-0.27,0.479-0.595,0.637-0.972c0.153-0.377,0.229-0.792,0.229-1.247
		c0-0.452-0.076-0.87-0.229-1.246c-0.157-0.378-0.367-0.702-0.637-0.974c-0.27-0.27-0.59-0.479-0.958-0.631
		C93.041,82.587,92.644,82.512,92.216,82.512L92.216,82.512z M92.216,80.537c0.74,0,1.426,0.128,2.059,0.387
		c0.631,0.256,1.178,0.611,1.638,1.061c0.462,0.451,0.821,0.984,1.082,1.598c0.26,0.616,0.392,1.284,0.392,2.004
		c0,0.721-0.132,1.389-0.392,2.004c-0.261,0.612-0.62,1.149-1.082,1.6c-0.46,0.451-1.007,0.804-1.638,1.062
		c-0.633,0.256-1.318,0.385-2.059,0.385c-0.742,0-1.428-0.129-2.059-0.385c-0.633-0.258-1.175-0.61-1.634-1.062
		c-0.456-0.45-0.814-0.987-1.076-1.6c-0.261-0.615-0.391-1.283-0.391-2.004c0-0.72,0.13-1.388,0.391-2.004
		c0.262-0.613,0.62-1.146,1.076-1.598c0.459-0.449,1.001-0.805,1.634-1.061C90.788,80.665,91.474,80.537,92.216,80.537
		L92.216,80.537z M38.185,85.554c0-1.679,1.101-3.059,2.899-3.059c1.718,0,2.878,1.32,2.878,3.059c0,1.74-1.16,3.057-2.878,3.057
		C39.285,88.61,38.185,87.233,38.185,85.554L38.185,85.554z M45.921,85.554v-4.776h-2.078v1.159
		c-0.661-0.859-1.658-1.399-3.018-1.399c-2.679,0-4.777,2.097-4.777,5.017c0,2.917,2.098,5.018,4.777,5.018
		c1.359,0,2.356-0.54,3.018-1.4v1.161h2.078V85.554z M34.208,90.332v-5.997c0-2.26-1.438-3.776-3.756-3.798
		c-1.22-0.021-2.48,0.359-3.359,1.699c-0.659-1.059-1.7-1.699-3.16-1.699c-1.017,0-2.018,0.299-2.798,1.418v-1.178h-2.077v9.555
		h2.098v-5.297c0-1.659,0.92-2.54,2.338-2.54c1.38,0,2.08,0.898,2.08,2.519v5.318h2.098v-5.297c0-1.659,0.961-2.54,2.338-2.54
		c1.42,0,2.1,0.898,2.1,2.519v5.318H34.208L34.208,90.332z"/>
</g>
</svg>
