<?xml version="1.0" encoding="utf-8"?>
<!-- Generator: Adobe Illustrator 16.0.0, SVG Export Plug-In . SVG Version: 6.00 Build 0)  -->
<!DOCTYPE svg PUBLIC "-//W3C//DTD SVG 1.1//EN" "http://www.w3.org/Graphics/SVG/1.1/DTD/svg11.dtd">
<svg version="1.1" id="Layer_1" xmlns="http://www.w3.org/2000/svg" xmlns:xlink="http://www.w3.org/1999/xlink" x="0px" y="0px"
	 width="800px" height="550px" viewBox="0 0 800 550" enable-background="new 0 0 800 550" xml:space="preserve">
<path fill="#0C0C0C" d="M800,530c0,11.046-8.954,20-20,20H20c-11.046,0-20-8.954-20-20V20C0,8.954,8.954,0,20,0h760
	c11.046,0,20,8.954,20,20V530z"/>
<g>
	<path fill="#FFFFFF" d="M235.974,472.181v-26.438c0.771-8.451-5.461-15.939-13.917-16.714c-0.792-0.068-1.588-0.082-2.388-0.03
		c-5.947-0.237-11.602,2.595-14.976,7.491c-2.943-4.927-8.374-7.807-14.101-7.491c-5.035-0.22-9.825,2.104-12.781,6.171v-5.289
		h-8.375v42.301h8.366v-24.234c-0.641-5.414,3.214-10.327,8.624-10.975c0.649-0.082,1.304-0.091,1.954-0.043
		c6.162,0,9.695,3.968,9.695,11.018v24.234h8.365v-24.234c-0.641-5.414,3.214-10.327,8.624-10.975
		c0.65-0.082,1.304-0.091,1.954-0.043c6.163,0,9.695,3.968,9.695,11.018v24.234L235.974,472.181L235.974,472.181z M373.453,430.318
		H358.03v-12.768h-8.375v12.768h-8.813v7.492h8.813v19.829c0,9.695,3.524,15.423,14.102,15.423
		c4.016-0.082,7.944-1.138,11.455-3.086l-2.642-7.487c-2.377,1.494-5.13,2.256-7.932,2.204c-3.398,0.278-6.377-2.247-6.651-5.635
		c-0.048-0.469-0.035-0.949,0.042-1.405v-20.272h15.422v-7.062H373.453z M451.893,428.998c-4.636-0.09-8.984,2.25-11.46,6.171
		v-5.289h-8.369v42.301h8.369v-23.784c0-7.061,3.528-11.468,9.257-11.468c1.933,0.086,3.854,0.379,5.728,0.883l2.651-7.932
		C456.041,429.373,453.971,429.08,451.893,428.998 M333.355,433.404c-5.16-3.154-11.137-4.687-17.179-4.406
		c-10.577,0-17.187,4.851-17.187,13.22c0,7.054,4.854,11.017,14.101,12.336l4.407,0.453c4.846,0.873,7.931,2.646,7.931,4.851
		c0,3.079-3.525,5.283-10.135,5.283c-5.051,0.095-10.004-1.441-14.101-4.405l-4.407,6.608c5.353,3.545,11.658,5.389,18.074,5.288
		c12.337,0,18.947-5.735,18.947-13.671c0-7.932-5.289-11.016-14.541-12.337l-4.406-0.439c-3.968-0.441-7.492-1.765-7.492-4.405
		c0-2.646,3.524-5.289,8.366-5.289c4.617,0.203,9.123,1.403,13.22,3.523L333.355,433.404z M461.588,451.029
		c-0.707,11.469,8.008,21.333,19.483,22.032c0.848,0.057,1.7,0.057,2.548,0c5.413,0.279,10.745-1.44,14.971-4.845l-4.406-6.609
		c-3.114,2.534-6.995,3.938-11.016,3.964c-7.784-0.624-13.599-7.438-12.975-15.218c0.551-6.937,6.054-12.439,12.975-12.982
		c4.021,0.025,7.9,1.426,11.016,3.965l4.406-6.611c-4.226-3.402-9.562-5.128-14.971-4.853c-10.822-1.301-20.659,6.42-21.954,17.246
		C461.506,448.423,461.479,449.73,461.588,451.029 M402.1,428.998c-12.336,0-20.711,8.812-20.711,22.031
		c-0.74,11.417,7.909,21.268,19.326,22.012c0.752,0.052,1.507,0.06,2.272,0.021c6.211,0.13,12.289-1.893,17.179-5.727l-4.406-6.171
		c-3.542,2.745-7.862,4.29-12.337,4.406c-6.491,0.253-12.067-4.562-12.782-11.019h31.292v-3.523
		C421.929,437.812,413.993,428.998,402.1,428.998 M402.1,436.929c5.797-0.268,10.736,4.227,11.008,10.034
		c0.01,0.182,0.01,0.362,0.01,0.544h-22.916C390.601,441.318,395.907,436.602,402.1,436.929 M287.97,451.029V429.88h-8.366v5.289
		c-3.275-4.166-8.374-6.468-13.667-6.171c-12.169,0-22.032,9.863-22.032,22.031c0,12.175,9.863,22.033,22.032,22.033
		c5.289,0.297,10.388-2.002,13.667-6.168v5.285h8.366V451.029z M253.6,451.029c0.486-7.284,6.786-12.793,14.071-12.307
		c7.281,0.486,12.789,6.785,12.312,14.071c-0.465,6.933-6.214,12.319-13.164,12.337c-7.152,0.172-13.091-5.481-13.267-12.639
		C253.544,452.007,253.553,451.521,253.6,451.029 M579.236,428.998c-4.644-0.09-8.981,2.25-11.464,6.171v-5.289h-8.365v42.301h8.365
		v-23.784c0-7.061,3.523-11.468,9.261-11.468c1.928,0.086,3.859,0.379,5.731,0.883l2.643-7.932
		C583.389,429.373,581.319,429.08,579.236,428.998 M647.099,466.019c0.627-0.067,1.243,0.096,1.765,0.438
		c0.438,0,0.878,0.438,1.319,0.883c0.44,0.443,0.884,0.882,0.884,1.32s0.438,0.882,0.438,1.764c0.072,0.62-0.086,1.24-0.438,1.757
		c-0.452,0.447-0.452,0.878-0.884,1.325c-0.441,0.442-0.882,0.877-1.319,0.877c-0.451,0-0.883,0.448-1.765,0.448
		c-0.62,0.063-1.248-0.095-1.757-0.448c-0.447-0.441-0.878-0.441-1.33-0.877c-0.438-0.447-0.872-0.878-0.872-1.325
		c0-0.443-0.447-0.878-0.447-1.757c-0.064-0.628,0.094-1.247,0.447-1.764c0.442-0.438,0.442-0.877,0.872-1.32
		c0.452-0.443,0.883-0.883,1.33-0.883C645.776,466.453,646.66,466.019,647.099,466.019 M647.099,473.506
		c0.485,0.061,0.973-0.103,1.32-0.447c0.469-0.037,0.844-0.412,0.882-0.878l0.882-0.878c0-0.447,0.44-0.879,0.44-1.324
		c0.068-0.481-0.091-0.975-0.44-1.325c-0.038-0.465-0.413-0.835-0.882-0.879l-0.882-0.878c-0.438,0-0.873-0.447-1.32-0.447
		c-0.479-0.057-0.969,0.1-1.321,0.447c-0.474,0.044-0.844,0.412-0.883,0.878l-0.883,0.879c0,0.446-0.438,0.882-0.438,1.325
		c-0.057,0.48,0.1,0.977,0.438,1.324c0.048,0.461,0.428,0.835,0.883,0.878l0.883,0.878
		C646.13,473.397,646.612,473.565,647.099,473.506 M647.536,468.656c0.479-0.061,0.973,0.099,1.326,0.442
		c0.438,0.448,0.438,0.448,0.438,0.878c0,0.452,0,0.452-0.438,0.884c-0.241,0.245-0.547,0.398-0.882,0.441l1.319,1.329h-1.319
		l-1.32-1.329h-0.453v1.329h-0.873v-3.967L647.536,468.656L647.536,468.656z M646.66,469.978h1.32V469.1h-1.32V469.978z
		 M546.631,451.029V429.88h-8.373v5.289c-3.267-4.166-8.361-6.468-13.658-6.171c-12.166,0-22.032,9.863-22.032,22.031
		c0,12.175,9.866,22.033,22.032,22.033c5.287,0.297,10.384-2.002,13.658-6.168v5.285h8.373V451.029z M512.7,451.029
		c0.49-7.284,6.787-12.793,14.076-12.307c7.268,0.486,12.79,6.785,12.308,14.071c-0.466,6.933-6.215,12.319-13.164,12.337
		C517.545,465.571,512.7,458.961,512.7,451.029 M632.114,451.029v-37.895h-8.37v22.033c-3.275-4.166-8.374-6.468-13.662-6.171
		c-12.175,0-22.032,9.863-22.032,22.031c0,12.175,9.857,22.032,22.032,22.032c5.28,0.298,10.379-2.001,13.662-6.167v5.285h8.37
		V451.029z M597.741,451.029c0.484-7.284,6.785-12.793,14.071-12.307c7.287,0.486,12.797,6.785,12.311,14.071
		c-0.461,6.933-6.214,12.319-13.164,12.337c-7.152,0.172-13.09-5.481-13.266-12.635
		C597.686,452.007,597.701,451.521,597.741,451.029"/>
	<rect x="323.66" y="109.093" fill="#EB621D" width="152.896" height="249.406"/>
	<path fill="#E41222" d="M339.521,233.792c0.013-48.609,22.248-94.545,60.371-124.702c-68.869-54.147-168.601-42.214-222.752,26.654
		c-54.146,68.868-42.214,168.603,26.654,222.751c28.01,22.027,62.633,33.98,98.272,33.93c35.497,0.026,69.966-11.929,97.825-33.93
		C361.773,328.338,339.535,282.404,339.521,233.792"/>
	<path fill="#F59E1F" d="M641.371,332.056v-5.289h2.202v-0.878h-5.288v0.878h2.202v5.289H641.371z M651.943,332.056v-6.167h-1.762
		l-1.764,4.406l-1.755-4.406h-1.761v6.167h1.319v-4.846l1.766,3.963h1.32l1.762-3.963v4.846H651.943z"/>
	<path fill="#F59E1F" d="M656.794,233.792c-0.1,87.61-71.201,158.547-158.811,158.457c-35.402-0.038-69.775-11.919-97.649-33.753
		c68.874-54.466,80.552-154.451,26.086-223.32c-7.646-9.682-16.402-18.433-26.086-26.086
		c68.972-54.029,168.682-41.916,222.705,27.054C644.873,164.02,656.755,198.385,656.794,233.792"/>
</g>
</svg>
