<?xml version="1.0" encoding="utf-8"?>
<!-- Generator: Adobe Illustrator 16.0.0, SVG Export Plug-In . SVG Version: 6.00 Build 0)  -->
<!DOCTYPE svg PUBLIC "-//W3C//DTD SVG 1.1//EN" "http://www.w3.org/Graphics/SVG/1.1/DTD/svg11.dtd">
<svg version="1.1" id="Layer_1" xmlns="http://www.w3.org/2000/svg" xmlns:xlink="http://www.w3.org/1999/xlink" x="0px" y="0px"
	 width="116.553px" height="90.705px" viewBox="0 0 116.553 90.705" enable-background="new 0 0 116.553 90.705"
	 xml:space="preserve">
<g>
	<path fill="#FFFFFF" d="M21.053,90.101v-6c0.175-1.918-1.239-3.617-3.158-3.793c-0.18-0.016-0.361-0.019-0.542-0.007
		c-1.35-0.054-2.633,0.589-3.399,1.7c-0.668-1.118-1.9-1.771-3.2-1.7c-1.142-0.05-2.229,0.478-2.9,1.4v-1.2H5.953v9.6h1.899v-5.5
		c-0.146-1.229,0.729-2.344,1.957-2.49c0.147-0.019,0.296-0.021,0.443-0.01c1.399,0,2.2,0.9,2.2,2.5v5.5h1.899v-5.5
		c-0.146-1.229,0.729-2.344,1.957-2.49c0.147-0.019,0.296-0.021,0.443-0.01c1.399,0,2.2,0.9,2.2,2.5v5.5H21.053z M52.252,80.601
		h-3.5v-2.898h-1.9v2.898h-2v1.7h2v4.5c0,2.2,0.8,3.5,3.2,3.5c0.911-0.019,1.803-0.258,2.6-0.7l-0.6-1.699
		c-0.539,0.338-1.164,0.511-1.8,0.5c-0.771,0.063-1.447-0.51-1.51-1.279c-0.01-0.107-0.007-0.216,0.01-0.32v-4.6h3.5V80.601z
		 M70.053,80.301c-1.052-0.021-2.039,0.511-2.601,1.4v-1.2h-1.899v9.6h1.899v-5.398c0-1.602,0.801-2.602,2.101-2.602
		c0.438,0.019,0.875,0.086,1.3,0.2l0.601-1.8C70.994,80.386,70.525,80.319,70.053,80.301 M43.153,81.301
		c-1.171-0.716-2.528-1.063-3.899-1c-2.4,0-3.9,1.101-3.9,3c0,1.601,1.101,2.5,3.2,2.8l1,0.102c1.1,0.199,1.8,0.6,1.8,1.1
		c0,0.7-0.8,1.2-2.3,1.2c-1.147,0.022-2.271-0.327-3.2-1l-1,1.5c1.215,0.804,2.645,1.222,4.101,1.2c2.8,0,4.3-1.301,4.3-3.102
		c0-1.8-1.2-2.5-3.3-2.8l-1-0.1c-0.9-0.101-1.7-0.4-1.7-1c0-0.601,0.8-1.2,1.899-1.2c1.047,0.046,2.07,0.318,3,0.8L43.153,81.301z
		 M72.253,85.301c-0.16,2.603,1.818,4.841,4.422,5c0.192,0.013,0.386,0.013,0.578,0c1.229,0.063,2.439-0.327,3.398-1.1l-1-1.5
		c-0.707,0.575-1.588,0.894-2.5,0.899c-1.767-0.141-3.086-1.687-2.945-3.453c0.125-1.574,1.374-2.823,2.945-2.946
		c0.912,0.006,1.793,0.323,2.5,0.899l1-1.5c-0.959-0.772-2.17-1.164-3.398-1.101c-2.456-0.295-4.688,1.457-4.982,3.914
		C72.235,84.709,72.229,85.006,72.253,85.301 M58.753,80.301c-2.8,0-4.7,2-4.7,5c-0.168,2.591,1.795,4.826,4.386,4.995
		c0.171,0.012,0.342,0.014,0.515,0.005c1.41,0.029,2.789-0.43,3.899-1.3l-1-1.4c-0.804,0.623-1.784,0.973-2.8,1
		c-1.473,0.057-2.738-1.035-2.9-2.5h7.101v-0.8C63.253,82.301,61.452,80.301,58.753,80.301 M58.753,82.101
		c1.316-0.061,2.437,0.959,2.498,2.277c0.002,0.041,0.002,0.082,0.002,0.123h-5.2C56.144,83.097,57.348,82.026,58.753,82.101
		 M32.853,85.301v-4.8h-1.899v1.2c-0.743-0.945-1.9-1.468-3.101-1.4c-2.762,0-5,2.238-5,5c0,2.763,2.238,5,5,5
		c1.2,0.067,2.357-0.454,3.101-1.399v1.199h1.899V85.301z M25.053,85.301c0.11-1.653,1.54-2.903,3.193-2.793s2.903,1.54,2.794,3.193
		c-0.105,1.573-1.41,2.796-2.987,2.8c-1.623,0.039-2.971-1.244-3.011-2.868C25.04,85.522,25.042,85.412,25.053,85.301
		 M98.952,80.301c-1.053-0.021-2.038,0.511-2.601,1.4v-1.2h-1.899v9.6h1.899v-5.398c0-1.602,0.8-2.602,2.101-2.602
		c0.438,0.019,0.876,0.086,1.301,0.2l0.6-1.8C99.895,80.386,99.425,80.319,98.952,80.301 M114.353,88.702
		c0.142-0.016,0.282,0.021,0.4,0.1c0.1,0,0.199,0.1,0.3,0.2c0.1,0.101,0.2,0.2,0.2,0.3s0.1,0.2,0.1,0.4
		c0.016,0.141-0.02,0.281-0.1,0.398c-0.102,0.102-0.102,0.2-0.2,0.301c-0.101,0.101-0.2,0.199-0.3,0.199
		c-0.102,0-0.2,0.102-0.4,0.102c-0.141,0.015-0.283-0.021-0.399-0.102c-0.101-0.1-0.199-0.1-0.301-0.199
		c-0.1-0.101-0.199-0.199-0.199-0.301c0-0.1-0.101-0.199-0.101-0.398c-0.015-0.143,0.021-0.283,0.101-0.4
		c0.101-0.1,0.101-0.199,0.199-0.3c0.102-0.101,0.2-0.2,0.301-0.2C114.053,88.801,114.253,88.702,114.353,88.702 M114.353,90.401
		c0.11,0.014,0.22-0.023,0.3-0.101c0.106-0.009,0.191-0.094,0.2-0.2l0.2-0.199c0-0.101,0.1-0.199,0.1-0.301
		c0.015-0.109-0.021-0.22-0.1-0.3c-0.009-0.106-0.094-0.19-0.2-0.2l-0.2-0.199c-0.1,0-0.199-0.101-0.3-0.101
		c-0.109-0.013-0.22,0.022-0.3,0.101c-0.107,0.01-0.191,0.094-0.2,0.199l-0.2,0.2c0,0.101-0.1,0.2-0.1,0.3
		c-0.013,0.11,0.022,0.222,0.1,0.301c0.01,0.105,0.096,0.19,0.2,0.199l0.2,0.2C114.133,90.377,114.242,90.415,114.353,90.401
		 M114.452,89.301c0.109-0.014,0.221,0.022,0.301,0.101c0.1,0.101,0.1,0.101,0.1,0.199c0,0.102,0,0.102-0.1,0.2
		c-0.055,0.056-0.124,0.091-0.2,0.101l0.3,0.301h-0.3l-0.3-0.301h-0.102v0.301h-0.199v-0.9L114.452,89.301L114.452,89.301z
		 M114.253,89.601h0.3v-0.199h-0.3V89.601z M91.553,85.301v-4.8h-1.9v1.2c-0.742-0.945-1.898-1.468-3.1-1.4c-2.761,0-5,2.238-5,5
		c0,2.763,2.239,5,5,5c1.2,0.067,2.356-0.454,3.1-1.399v1.199h1.9V85.301z M83.853,85.301c0.111-1.653,1.54-2.903,3.194-2.793
		c1.65,0.11,2.902,1.54,2.793,3.193c-0.105,1.573-1.41,2.796-2.987,2.8C84.952,88.601,83.853,87.101,83.853,85.301 M110.952,85.301
		v-8.6h-1.899v5c-0.743-0.945-1.9-1.468-3.101-1.4c-2.762,0-5,2.238-5,5c0,2.763,2.238,5,5,5c1.199,0.067,2.356-0.454,3.101-1.399
		v1.199h1.899V85.301z M103.152,85.301c0.11-1.653,1.54-2.903,3.193-2.793c1.654,0.11,2.904,1.54,2.794,3.193
		c-0.105,1.573-1.41,2.796-2.987,2.8c-1.623,0.039-2.971-1.244-3.011-2.867C103.139,85.522,103.143,85.412,103.152,85.301"/>
	<rect x="40.952" y="7.702" fill="#FF5F00" width="34.699" height="56.6"/>
	<path fill="#EB001B" d="M44.552,36.001c0.003-11.031,5.049-21.456,13.7-28.3C42.623-4.587,19.99-1.879,7.701,13.75
		c-12.288,15.629-9.58,38.263,6.049,50.551c6.357,4.999,14.214,7.712,22.302,7.7c8.056,0.006,15.878-2.707,22.2-7.7
		C49.602,57.457,44.555,47.033,44.552,36.001"/>
	<path fill="#F79E1B" d="M113.053,58.301v-1.2h0.5v-0.199h-1.2v0.199h0.5v1.2H113.053z M115.452,58.301v-1.399h-0.399l-0.4,1
		l-0.399-1h-0.399v1.399h0.3v-1.1l0.4,0.899h0.3l0.399-0.899v1.1H115.452z"/>
	<path fill="#F79E1B" d="M116.553,36.001c-0.022,19.882-16.158,35.98-36.04,35.96c-8.034-0.009-15.835-2.705-22.16-7.66
		c15.63-12.36,18.28-35.051,5.92-50.68c-1.736-2.197-3.723-4.183-5.92-5.92c15.652-12.261,38.28-9.512,50.54,6.14
		C113.848,20.167,116.544,27.966,116.553,36.001"/>
</g>
</svg>
