<?xml version="1.0" encoding="utf-8"?>
<!-- Generator: Adobe Illustrator 16.0.0, SVG Export Plug-In . SVG Version: 6.00 Build 0)  -->
<!DOCTYPE svg PUBLIC "-//W3C//DTD SVG 1.1//EN" "http://www.w3.org/Graphics/SVG/1.1/DTD/svg11.dtd">
<svg version="1.1" id="Layer_1" xmlns="http://www.w3.org/2000/svg" xmlns:xlink="http://www.w3.org/1999/xlink" x="0px" y="0px"
	 width="800px" height="550px" viewBox="0 0 800 550" enable-background="new 0 0 800 550" xml:space="preserve">
<path fill="#F3F2F2" d="M800,530c0,11.046-8.954,20-20,20H20c-11.046,0-20-8.954-20-20V20C0,8.954,8.954,0,20,0h760
	c11.046,0,20,8.954,20,20V530z"/>
<g>
	<rect x="98.989" y="226.243" fill="#253064" width="95.641" height="69.067"/>
	<path fill="#179BD7" d="M602.358,240.048c-5.156-6.051-14.282-9.25-26.409-9.25h-36.24c-2.495,0-4.61,1.809-4.975,4.256L520.06,328
		c-0.285,1.828,1.123,3.473,2.991,3.473h18.604c1.723,0,3.185-1.268,3.473-2.965l4.164-26.354c0.405-2.456,2.494-4.257,4.987-4.257
		h11.448c23.892,0,37.651-11.541,41.255-34.454C608.599,253.436,607.059,245.558,602.358,240.048z M580.14,264.742
		c-1.998,13.01-11.92,13.01-21.541,13.01h-5.471l3.839-24.29c0.223-1.476,1.476-2.539,2.978-2.539h2.492
		c6.556,0,12.742,0,15.928,3.727C580.27,256.882,580.845,260.186,580.14,264.742z"/>
	<path fill="#179BD7" d="M684.266,264.331h-17.311c-1.514,0-2.768,1.083-2.989,2.552l-0.797,4.849l-1.201-1.75
		c-3.759-5.457-12.142-7.284-20.521-7.284c-19.177,0-35.535,14.53-38.734,34.909c-1.657,10.184,0.705,19.896,6.463,26.686
		c5.3,6.213,12.872,8.826,21.867,8.826c15.443,0,24.008-9.949,24.008-9.949l-0.783,4.83c-0.273,1.828,1.149,3.498,3.017,3.498
		h15.626c2.48,0,4.569-1.828,4.949-4.256l9.411-59.413C687.556,265.989,686.146,264.331,684.266,264.331z M660.074,298.131
		c-1.657,9.922-9.518,16.553-19.568,16.553c-5.025,0-9.061-1.616-11.658-4.674c-2.546-3.055-3.512-7.362-2.729-12.192
		c1.58-9.845,9.557-16.71,19.453-16.71c4.946,0,8.941,1.646,11.593,4.726C659.827,288.953,660.846,293.312,660.074,298.131z"/>
	<path fill="#179BD7" d="M724.475,230.799h-16.709c-1.487,0-2.768,1.096-3.016,2.553l-14.844,94.66
		c-0.301,1.816,1.097,3.486,2.964,3.486h14.974c2.469,0,4.583-1.814,4.96-4.242l14.701-92.965
		C727.739,232.457,726.343,230.799,724.475,230.799z"/>
	<path fill="#263C7F" d="M343.817,240.048c-5.157-6.051-14.289-9.25-26.43-9.25h-36.241c-2.487,0-4.595,1.809-4.987,4.256
		L261.499,328c-0.281,1.828,1.135,3.473,3.009,3.473h17.298c2.474,0,4.583-1.803,4.975-4.229l3.943-25.078
		c0.372-2.441,2.512-4.256,4.974-4.256h11.469c23.89,0,37.656-11.554,41.253-34.446C350.064,253.436,348.51,245.558,343.817,240.048
		z M321.571,264.742c-1.978,13.01-11.919,13.01-21.521,13.01h-5.463l3.832-24.29c0.228-1.476,1.488-2.539,2.982-2.539h2.5
		c6.554,0,12.729,0,15.92,3.727C321.721,256.882,322.296,260.186,321.571,264.742z"/>
	<path fill="#263C7F" d="M425.75,264.331h-17.361c-1.488,0-2.769,1.083-2.982,2.552l-0.771,4.849l-1.221-1.75
		c-3.753-5.457-12.123-7.284-20.49-7.284c-19.185,0-35.562,14.53-38.741,34.909c-1.671,10.184,0.692,19.896,6.456,26.686
		c5.294,6.213,12.86,8.826,21.868,8.826c15.457,0,24.027-9.949,24.027-9.949l-0.776,4.83c-0.294,1.828,1.136,3.498,2.983,3.498
		h15.64c2.467,0,4.582-1.828,4.973-4.256l9.375-59.413C429.015,265.989,427.604,264.331,425.75,264.331z M401.547,298.131
		c-1.671,9.922-9.55,16.553-19.589,16.553c-5.039,0-9.074-1.616-11.658-4.674c-2.565-3.055-3.539-7.362-2.722-12.192
		c1.56-9.845,9.557-16.71,19.445-16.71c4.935,0,8.95,1.646,11.58,4.726C401.266,288.953,402.305,293.312,401.547,298.131z"/>
	<path fill="#263C7F" d="M518.193,264.331h-17.454c-1.658,0-3.213,0.828-4.152,2.219l-24.061,35.444l-10.209-34.067
		c-0.641-2.128-2.598-3.596-4.845-3.596h-17.128c-2.088,0-3.523,2.042-2.872,3.994l19.23,56.372l-18.081,25.496
		c-1.41,2.01,0.024,4.778,2.479,4.778h17.416c1.671,0,3.198-0.811,4.151-2.153l58.017-83.743
		C522.07,267.072,520.635,264.331,518.193,264.331z"/>
	<path fill="#179BD7" d="M201.7,241.131c-1.912-2.187-4.288-3.995-7.082-5.463l0,0c-0.137,0.947-0.307,1.926-0.496,2.911
		c-0.19,0.94-0.393,1.848-0.575,2.742c-6.352,27.67-24.042,39.543-47.083,42.031c-1.527,0.176-3.1,0.293-4.68,0.385
		c-1.723,0.086-3.518,0.137-5.294,0.137h-14.583c-3.518,0-6.462,2.533-7.01,6.006l-6.612,41.935l-0.842,5.418l-2.128,13.42
		c-0.346,2.271,1.391,4.321,3.675,4.321h25.869c3.061,0,5.666-2.221,6.162-5.25l0.241-1.332l4.883-30.887l0.307-1.711
		c0.464-3.027,3.074-5.248,6.149-5.248h3.864c25.065,0,44.687-10.17,50.424-39.628C209.278,258.619,208.038,248.338,201.7,241.131z"
		/>
	<path fill="#263C7F" d="M114.897,289.879l0.242-1.541l8.29-52.493c0.32-2.089,1.658-3.799,3.446-4.654
		c0.829-0.392,1.743-0.601,2.703-0.601h38.969c4.602,0,8.917,0.307,12.847,0.933c1.123,0.17,2.219,0.386,3.276,0.614
		c1.058,0.241,2.096,0.508,3.101,0.803c0.372,0.104,0.737,0.228,1.109,0.333c0.117,0.04,0.242,0.065,0.346,0.111
		c0.072,0.04,0.15,0.065,0.202,0.092c1.874,0.613,3.584,1.351,5.177,2.193h0.013c1.952-12.447-0.013-20.908-6.743-28.583
		c-7.403-8.434-20.797-12.057-37.913-12.057H100.25c-3.505,0-6.482,2.539-7.017,5.999L72.52,332.295
		c-0.397,2.598,1.606,4.937,4.224,4.937h30.699l0.842-5.418L114.897,289.879z"/>
</g>
</svg>
