<?xml version="1.0" encoding="utf-8"?>
<!-- Generator: Adobe Illustrator 16.0.0, SVG Export Plug-In . SVG Version: 6.00 Build 0)  -->
<!DOCTYPE svg PUBLIC "-//W3C//DTD SVG 1.0//EN" "http://www.w3.org/TR/2001/REC-SVG-20010904/DTD/svg10.dtd">
<svg version="1.0" id="PPlogo" xmlns="http://www.w3.org/2000/svg" xmlns:xlink="http://www.w3.org/1999/xlink" x="0px" y="0px"
	 width="50px" height="13px" viewBox="0 -0.291 50 13" enable-background="new 0 -0.291 50 13" xml:space="preserve">
<rect x="2.485" y="2.562" fill="#222D65" width="7.154" height="5.167"/>
<path fill="#179BD7" d="M40.138,3.595c-0.385-0.453-1.068-0.692-1.975-0.692h-2.711c-0.187,0-0.344,0.135-0.372,0.318l-1.097,6.953
	c-0.022,0.136,0.083,0.26,0.223,0.26h1.391c0.129,0,0.239-0.095,0.261-0.222l0.311-1.972c0.03-0.183,0.187-0.318,0.373-0.318h0.857
	c1.786,0,2.816-0.864,3.085-2.577C40.606,4.596,40.49,4.007,40.138,3.595z M38.476,5.442c-0.149,0.973-0.891,0.973-1.611,0.973
	h-0.409l0.287-1.817c0.017-0.11,0.111-0.19,0.223-0.19h0.187c0.49,0,0.953,0,1.191,0.279C38.486,4.854,38.53,5.101,38.476,5.442z"/>
<path fill="#179BD7" d="M46.266,5.411H44.97c-0.112,0-0.206,0.081-0.223,0.191l-0.059,0.363l-0.091-0.131
	c-0.281-0.408-0.908-0.545-1.534-0.545c-1.435,0-2.659,1.087-2.898,2.612c-0.124,0.761,0.053,1.488,0.483,1.995
	c0.397,0.466,0.963,0.66,1.636,0.66c1.155,0,1.796-0.744,1.796-0.744l-0.058,0.362c-0.021,0.137,0.085,0.261,0.225,0.261h1.169
	c0.185,0,0.342-0.136,0.37-0.318l0.704-4.444C46.512,5.535,46.406,5.411,46.266,5.411z M44.456,7.939
	c-0.124,0.742-0.712,1.239-1.464,1.239c-0.376,0-0.678-0.121-0.872-0.35c-0.191-0.228-0.263-0.551-0.204-0.912
	c0.118-0.736,0.715-1.25,1.455-1.25c0.37,0,0.669,0.123,0.867,0.354C44.437,7.253,44.514,7.579,44.456,7.939z"/>
<path fill="#179BD7" d="M49.274,2.903h-1.251c-0.111,0-0.207,0.082-0.225,0.191l-1.111,7.081c-0.022,0.136,0.083,0.26,0.222,0.26
	h1.12c0.185,0,0.343-0.135,0.372-0.317l1.099-6.954C49.518,3.027,49.413,2.903,49.274,2.903z"/>
<path fill="#253B80" d="M20.799,3.595c-0.386-0.453-1.069-0.692-1.977-0.692h-2.711c-0.186,0-0.344,0.135-0.373,0.318l-1.097,6.953
	c-0.021,0.136,0.085,0.26,0.225,0.26h1.294c0.185,0,0.343-0.135,0.372-0.317l0.295-1.876c0.028-0.183,0.188-0.318,0.372-0.318h0.858
	c1.787,0,2.817-0.864,3.086-2.577C21.266,4.596,21.15,4.007,20.799,3.595z M19.135,5.442c-0.148,0.973-0.892,0.973-1.61,0.973
	h-0.409l0.287-1.817c0.017-0.11,0.111-0.19,0.223-0.19h0.187c0.49,0,0.952,0,1.191,0.279C19.146,4.854,19.189,5.101,19.135,5.442z"
	/>
<path fill="#253B80" d="M26.928,5.411h-1.299c-0.111,0-0.207,0.081-0.223,0.191l-0.058,0.363l-0.091-0.131
	c-0.281-0.408-0.907-0.545-1.533-0.545c-1.435,0-2.66,1.087-2.898,2.612c-0.125,0.761,0.052,1.488,0.483,1.995
	c0.396,0.466,0.962,0.66,1.636,0.66c1.156,0,1.797-0.744,1.797-0.744l-0.058,0.362c-0.022,0.137,0.085,0.261,0.223,0.261h1.17
	c0.185,0,0.343-0.136,0.372-0.318l0.702-4.444C27.172,5.535,27.067,5.411,26.928,5.411z M25.117,7.939
	c-0.125,0.742-0.714,1.239-1.465,1.239c-0.377,0-0.679-0.121-0.872-0.35c-0.192-0.228-0.265-0.551-0.204-0.912
	c0.117-0.736,0.715-1.25,1.455-1.25c0.369,0,0.669,0.123,0.866,0.354C25.096,7.253,25.174,7.579,25.117,7.939z"/>
<path fill="#253B80" d="M33.843,5.411h-1.306c-0.124,0-0.24,0.062-0.31,0.166l-1.8,2.651L29.663,5.68
	c-0.048-0.159-0.194-0.269-0.362-0.269H28.02c-0.156,0-0.264,0.153-0.215,0.299l1.438,4.217l-1.352,1.907
	c-0.106,0.15,0.001,0.357,0.185,0.357h1.303c0.125,0,0.239-0.06,0.31-0.161l4.34-6.264C34.133,5.616,34.026,5.411,33.843,5.411z"/>
<path fill="#179BD7" d="M10.168,3.676c-0.143-0.164-0.321-0.299-0.53-0.409l0,0C9.628,3.338,9.615,3.411,9.601,3.485
	c-0.014,0.07-0.029,0.138-0.043,0.205C9.083,5.76,7.76,6.648,6.036,6.834C5.922,6.847,5.804,6.856,5.686,6.863
	c-0.129,0.006-0.263,0.01-0.396,0.01H4.199c-0.263,0-0.483,0.19-0.524,0.449L3.18,10.459l-0.063,0.405l-0.159,1.004
	c-0.026,0.17,0.104,0.323,0.275,0.323h1.935c0.229,0,0.424-0.166,0.461-0.392l0.018-0.1l0.365-2.311l0.023-0.127
	c0.035-0.227,0.23-0.393,0.46-0.393h0.289c1.875,0,3.343-0.761,3.772-2.964C10.735,4.984,10.642,4.215,10.168,3.676z"/>
<path fill="#253B80" d="M3.675,7.322l0.018-0.115L4.313,3.28c0.024-0.156,0.124-0.284,0.258-0.348
	c0.062-0.029,0.13-0.045,0.202-0.045h2.915c0.344,0,0.667,0.023,0.961,0.07C8.733,2.97,8.815,2.986,8.894,3.003
	c0.079,0.018,0.157,0.038,0.232,0.06C9.154,3.071,9.181,3.08,9.209,3.088c0.009,0.003,0.018,0.005,0.026,0.008
	C9.24,3.099,9.246,3.101,9.25,3.103c0.14,0.046,0.268,0.101,0.387,0.164c0,0,0.001,0,0.001,0c0.146-0.931-0.001-1.564-0.504-2.138
	C8.58,0.498,7.578,0.227,6.298,0.227H2.579c-0.262,0-0.485,0.19-0.525,0.449l-1.549,9.819c-0.03,0.195,0.12,0.369,0.316,0.369h2.296
	l0.063-0.405L3.675,7.322z"/>
</svg>
