<?xml version="1.0" encoding="utf-8"?>
<!-- Generator: Adobe Illustrator 16.0.0, SVG Export Plug-In . SVG Version: 6.00 Build 0)  -->
<!DOCTYPE svg PUBLIC "-//W3C//DTD SVG 1.1//EN" "http://www.w3.org/Graphics/SVG/1.1/DTD/svg11.dtd">
<svg version="1.1" id="Layer_1" xmlns="http://www.w3.org/2000/svg" xmlns:xlink="http://www.w3.org/1999/xlink" x="0px" y="0px"
	 width="800px" height="550px" viewBox="0 0 800 550" enable-background="new 0 0 800 550" xml:space="preserve">
<g>
	<defs>
		<path id="SVGID_1_" d="M800,530c0,11.046-8.954,20-20,20H20c-11.046,0-20-8.954-20-20V20C0,8.954,8.954,0,20,0h760
			c11.046,0,20,8.954,20,20V530z"/>
	</defs>
	<clipPath id="SVGID_2_">
		<use xlink:href="#SVGID_1_"  overflow="visible"/>
	</clipPath>
	<g clip-path="url(#SVGID_2_)">
		<rect x="-28.5" y="-27.473" fill="#F3F2F2" width="857" height="604.945"/>
		<rect x="-28.5" y="414.175" fill="#F49823" width="857" height="163.298"/>
		<rect x="-28.5" y="-27.473" fill="#273885" width="857" height="163.299"/>
	</g>
</g>
<g>
	<g>
		<polygon fill="#273885" points="327.788,350.889 353.49,199.118 395.102,199.118 369.401,350.889 		"/>
		<path fill="#273885" d="M517.539,203.042c-8.247-3.076-21.168-6.371-37.303-6.371c-41.125,0-70.093,20.59-70.343,50.089
			c-0.229,21.803,20.679,33.964,36.475,41.229c16.196,7.426,21.644,12.189,21.564,18.824c-0.102,10.173-12.942,14.823-24.906,14.823
			c-16.653-0.004-25.505-2.301-39.174-7.966l-5.361-2.418l-5.844,33.976c9.722,4.238,27.7,7.915,46.365,8.101
			c43.739-0.011,72.146-20.345,72.464-51.854c0.159-17.264-10.932-30.402-34.94-41.237c-14.55-7.012-23.459-11.694-23.363-18.812
			c0-6.306,7.547-13.051,23.835-13.051c13.608-0.213,23.468,2.736,31.154,5.812l3.723,1.75L517.539,203.042L517.539,203.042z"/>
		<path fill="#273885" d="M588.485,199.118c-9.971,0-17.174,3.045-21.555,12.926l-61.672,138.852h44.058l8.566-23.259h52.64
			l4.89,23.259h39.168l-34.267-151.773h-31.827L588.485,199.118L588.485,199.118z M569.572,297.27
			c3.438-8.74,16.574-42.42,16.574-42.42c-0.237,0.398,3.42-8.783,5.521-14.479l2.816,13.079c0,0,7.96,36.229,9.632,43.825h-34.543
			V297.27z"/>
		<path fill="#273885" d="M251.902,303.156l-3.666-20.808c-7.594-24.253-31.164-50.496-57.577-63.644l36.765,132.184h44.069
			l66.089-151.771h-44.058L251.902,303.156z"/>
	</g>
	<path fill="#F49823" d="M145.42,199.118v2.451c52.216,12.559,88.467,44.307,102.819,80.781l-15.089-70.279
		c-2.519-9.605-10.151-12.618-19.183-12.952L145.42,199.118L145.42,199.118z"/>
</g>
</svg>
