<?xml version="1.0" encoding="utf-8"?>
<!-- Generator: Adobe Illustrator 16.0.0, SVG Export Plug-In . SVG Version: 6.00 Build 0)  -->
<!DOCTYPE svg PUBLIC "-//W3C//DTD SVG 1.1//EN" "http://www.w3.org/Graphics/SVG/1.1/DTD/svg11.dtd">
<svg version="1.1" id="Layer_1" xmlns="http://www.w3.org/2000/svg" xmlns:xlink="http://www.w3.org/1999/xlink" x="0px" y="0px"
	 width="116.553px" height="78.458px" viewBox="0 0 116.553 78.458" enable-background="new 0 0 116.553 78.458"
	 xml:space="preserve">
<g>
	<rect x="0" fill="#005596" width="116.553" height="78.458"/>
	<polygon fill-rule="evenodd" clip-rule="evenodd" fill="#FFFFFF" points="114.573,76.478 1.981,76.478 1.981,1.98 114.573,1.98 
		114.573,76.478 	"/>
	<polygon fill-rule="evenodd" clip-rule="evenodd" fill="#005596" points="42.674,51.328 49.987,27.217 56.51,27.217 49.198,51.328 
		42.674,51.328 	"/>
	<path fill-rule="evenodd" clip-rule="evenodd" fill="#005596" d="M39.757,27.224l-5.869,10.221
		c-1.494,2.677-2.367,4.028-2.788,5.719h-0.089c0.104-2.144-0.195-4.776-0.223-6.264l-0.648-9.676H19.157l-0.112,0.649
		c2.821,0,4.494,1.417,4.955,4.317l2.14,19.139H32.9l13.667-24.104H39.757L39.757,27.224z"/>
	<path fill-rule="evenodd" clip-rule="evenodd" fill="#005596" d="M90.495,51.328l-0.181-3.586l-8.146-0.007l-1.667,3.593h-7.083
		l12.842-24.065h8.696l2.174,24.065H90.495L90.495,51.328z M89.747,37.106c-0.073-1.782-0.133-4.2-0.013-5.664h-0.096
		c-0.396,1.197-2.103,4.791-2.853,6.558l-2.428,5.285h5.721L89.747,37.106L89.747,37.106z"/>
	<path fill-rule="evenodd" clip-rule="evenodd" fill="#005596" d="M63.361,52.013c-4.607,0-7.663-1.461-9.846-2.764l3.108-4.746
		c1.958,1.095,3.498,2.359,7.039,2.359c1.136,0,2.233-0.295,2.855-1.374c0.908-1.568-0.209-2.412-2.756-3.855l-1.259-0.819
		c-3.78-2.581-5.413-5.033-3.635-9.313c1.139-2.738,4.139-4.813,9.093-4.813c3.414,0,6.616,1.477,8.481,2.92l-3.572,4.19
		c-1.823-1.472-3.331-2.217-5.058-2.217c-1.377,0-2.423,0.531-2.785,1.247c-0.68,1.347,0.22,2.264,2.206,3.497l1.497,0.952
		c4.587,2.893,5.68,5.927,4.529,8.762C71.281,50.923,67.411,52.013,63.361,52.013L63.361,52.013z"/>
	<path fill-rule="evenodd" clip-rule="evenodd" fill="#005596" d="M99.073,30.485h-0.282v-1.72h0.652
		c0.416,0,0.627,0.145,0.627,0.494c0,0.312-0.19,0.44-0.447,0.469l0.481,0.756h-0.32L99.34,29.75h-0.267V30.485L99.073,30.485z
		 M99.389,29.508c0.214,0,0.399-0.021,0.399-0.27c0-0.208-0.203-0.233-0.374-0.233h-0.341v0.502H99.389L99.389,29.508z M99.38,31.15
		c-0.893,0-1.528-0.669-1.528-1.554c0-0.936,0.706-1.554,1.528-1.554c0.815,0,1.522,0.619,1.522,1.554
		C100.903,30.531,100.196,31.15,99.38,31.15L99.38,31.15z M99.38,28.312c-0.672,0-1.195,0.528-1.195,1.285
		c0,0.706,0.457,1.284,1.195,1.284c0.666,0,1.189-0.523,1.189-1.284C100.57,28.839,100.046,28.312,99.38,28.312L99.38,28.312z"/>
	<polygon fill-rule="evenodd" clip-rule="evenodd" fill="#F7AA0F" points="111.801,58.816 4.951,58.816 4.951,73.112 
		111.801,73.112 111.801,58.816 	"/>
	<polygon fill-rule="evenodd" clip-rule="evenodd" fill="#005596" points="111.603,5.544 4.753,5.544 4.753,19.841 111.603,19.841 
		111.603,5.544 	"/>
	<path fill-rule="evenodd" clip-rule="evenodd" fill="#005596" d="M109.16,72.095h-0.282v-1.72h0.653
		c0.416,0,0.626,0.144,0.626,0.493c0,0.312-0.189,0.44-0.447,0.47l0.482,0.757h-0.32l-0.444-0.736h-0.268V72.095L109.16,72.095z
		 M109.477,71.118c0.213,0,0.399-0.021,0.399-0.271c0-0.206-0.204-0.231-0.373-0.231h-0.343v0.503H109.477L109.477,71.118z
		 M109.47,72.759c-0.895,0-1.53-0.669-1.53-1.554c0-0.935,0.707-1.554,1.53-1.554c0.814,0,1.52,0.619,1.52,1.554
		C110.99,72.141,110.284,72.759,109.47,72.759L109.47,72.759z M109.47,69.922c-0.675,0-1.197,0.527-1.197,1.283
		c0,0.707,0.457,1.283,1.197,1.283c0.663,0,1.188-0.522,1.188-1.283C110.657,70.449,110.133,69.922,109.47,69.922L109.47,69.922z"/>
</g>
</svg>
